<?xml version="1.0" encoding="UTF-8" standalone="no"?>
<svg
   viewBox="0 0 624.95972 192"
   width="624.95972"
   height="192"
   version="1.1"
   id="svg8"
   xmlns="http://www.w3.org/2000/svg"
   xmlns:svg="http://www.w3.org/2000/svg">
  <defs
     id="defs1">
    <style
       id="style1">
      .wordmark {
        font: bold 90px &quot;Space Grotesk&quot;;
        fill: #ffffff;
      }
      @media (prefers-color-scheme: light) {
        .wordmark { fill: #0f172a; }
      }
    </style>
  </defs>
  <g
     transform="translate(96,96)"
     id="g8">
    <rect
       x="-96"
       y="-96"
       width="192"
       height="192"
       rx="40"
       fill="#0f172a"
       id="rect1" />
    <line
       x1="0"
       y1="-70"
       x2="0"
       y2="-18"
       stroke="#22d3ee"
       stroke-width="11"
       stroke-linecap="round"
       id="line1" />
    <line
       x1="0"
       y1="70"
       x2="0"
       y2="18"
       stroke="#22d3ee"
       stroke-width="11"
       stroke-linecap="round"
       id="line2" />
    <line
       x1="-60.599998"
       y1="-35"
       x2="-15.6"
       y2="-9"
       stroke="#22d3ee"
       stroke-width="11"
       stroke-linecap="round"
       id="line3" />
    <line
       x1="60.599998"
       y1="35"
       x2="15.6"
       y2="9"
       stroke="#22d3ee"
       stroke-width="11"
       stroke-linecap="round"
       id="line4" />
    <line
       x1="60.599998"
       y1="-35"
       x2="15.6"
       y2="-9"
       stroke="#22d3ee"
       stroke-width="11"
       stroke-linecap="round"
       id="line5" />
    <line
       x1="-60.599998"
       y1="35"
       x2="-15.6"
       y2="9"
       stroke="#22d3ee"
       stroke-width="11"
       stroke-linecap="round"
       id="line6" />
    <circle
       cx="0"
       cy="0"
       r="16"
       fill="#0f172a"
       id="circle6" />
    <circle
       cx="0"
       cy="0"
       r="10"
       fill="#22d3ee"
       id="circle7" />
    <circle
       cx="0"
       cy="0"
       r="4"
       fill="#ffffff"
       opacity="0.95"
       id="circle8" />
  </g>
  <path
     d="m 221.94,131 h 11.88 v -23.04 h 14.04 c 11.52,0 20.16,-7.56 20.16,-19.35 V 87.35 C 268.02,75.56 259.74,68 247.86,68 H 221.94 Z M 233.82,97.16 V 78.8 h 12.87 c 5.67,0 9.45,3.33 9.45,8.73 v 0.9 c 0,5.4 -3.87,8.73 -9.45,8.73 z M 276.66001,131 h 11.34 v -25.38 c 0,-6.3 4.14,-9.36 9.9,-9.36 h 5.58 V 86.18 h -5.4 c -4.14,0 -7.38,1.62 -8.64,5.22 h -1.62 v -5.04 h -11.16 z m 55.26003,1.26 c 13.32,0 23.4,-8.46 23.4,-22.86 v -1.44 c 0,-14.4 -10.08,-22.86 -23.4,-22.86 -13.32,0 -23.4,8.46 -23.4,22.86 v 1.44 c 0,14.4 10.08,22.86 23.4,22.86 z m 0,-10.08 c -6.93,0 -12.06,-4.68 -12.06,-13.05 v -0.9 c 0,-8.37 5.04,-13.05 12.06,-13.05 7.02,0 12.06,4.68 12.06,13.05 v 0.9 c 0,8.37 -5.13,13.05 -12.06,13.05 z m 49.49989,8.82 h 12.6 v -9.36 h -8.64 c -1.62,0 -2.52,-0.9 -2.52,-2.7 V 95.72 h 12.24 v -9.36 h -12.24 V 72.5 h -11.34 v 13.86 h -11.16 v 9.36 h 11.16 v 25.2 c 0,6.12 3.96,10.08 9.9,10.08 z m 43.55997,1.26 c 13.32,0 23.4,-8.46 23.4,-22.86 v -1.44 c 0,-14.4 -10.08,-22.86 -23.4,-22.86 -13.32,0 -23.4,8.46 -23.4,22.86 v 1.44 c 0,14.4 10.08,22.86 23.4,22.86 z m 0,-10.08 c -6.93,0 -12.06,-4.68 -12.06,-13.05 v -0.9 c 0,-8.37 5.04,-13.05 12.06,-13.05 7.02,0 12.06,4.68 12.06,13.05 v 0.9 c 0,8.37 -5.13,13.05 -12.06,13.05 z m 52.37995,10.08 c 11.34,0 18.72,-5.31 18.72,-14.67 0,-9.36 -7.92,-12.24 -18,-14.04 l -2.52,-0.45 c -4.14,-0.72 -6.66,-1.89 -6.66,-4.77 0,-2.61 2.34,-4.23 6.66,-4.23 4.32,0 7.38,1.71 8.37,6.3 l 10.53,-3.24 c -2.07,-7.2 -8.91,-12.06 -18.9,-12.06 -10.62,0 -17.64,4.95 -17.64,13.77 0,8.82 7.74,12.33 17.1,14.04 l 2.52,0.45 c 5.31,0.99 7.56,2.25 7.56,5.04 0,2.79 -2.52,4.86 -7.74,4.86 -5.22,0 -9.45,-1.98 -10.62,-8.28 l -10.44,2.7 c 1.53,9.36 9.36,14.58 21.06,14.58 z m 44.82,-1.26 h 12.6 v -9.36 h -8.64 c -1.62,0 -2.52,-0.9 -2.52,-2.7 V 95.72 h 12.24 v -9.36 h -12.24 V 72.5 h -11.34 v 13.86 h -11.16 v 9.36 h 11.16 v 25.2 c 0,6.12 3.96,10.08 9.9,10.08 z m 37.79994,1.26 c 9.36,0 12.15,-5.04 12.96,-7.29 h 1.71 v 0.09 c 0,3.6 3.24,5.94 7.65,5.94 h 7.56 v -9.36 h -3.6 c -1.62,0 -2.52,-0.9 -2.52,-2.7 v -16.65 c 0,-11.16 -7.38,-17.19 -19.08,-17.19 -11.61,0 -17.46,5.85 -19.62,12.6 l 10.44,3.51 c 0.81,-4.05 3.33,-6.93 9,-6.93 5.76,0 8.28,3.06 8.28,7.2 V 104 h -12.24 c -10.08,0 -17.28,4.77 -17.28,13.95 0,9.18 7.2,14.31 16.74,14.31 z m 1.98,-9.18 c -4.86,0 -7.38,-2.25 -7.38,-5.49 0,-3.24 2.52,-5.13 6.75,-5.13 h 11.43 v 0.9 c 0,5.94 -4.5,9.72 -10.8,9.72 z m 36.17993,7.92 h 11.34 v -25.38 c 0,-6.3 4.14,-9.36 9.9,-9.36 h 5.58 V 86.18 h -5.4 c -4.14,0 -7.38,1.62 -8.64,5.22 h -1.62 v -5.04 h -11.16 z"
     id="text8"
     style="font-style:normal;font-variant:normal;font-weight:bold;font-stretch:normal;font-size:90px;line-height:normal;font-family:'Space Grotesk';fill:#ffffff"
     class="wordmark"
     aria-label="Protostar" />
</svg>
